<svg xmlns="http://www.w3.org/2000/svg" viewBox="0 0 433.08 489"><defs><style>.cls-1{fill:#bb34a3;}.cls-2{fill:#f33b9e;}.cls-3{fill:#008ccc;}.cls-4{fill:#00a7e9;}</style></defs><g id="Capa_2" data-name="Capa 2"><g id="Layer_1" data-name="Layer 1"><polygon class="cls-1" points="272.39 212.97 272.39 151.91 326.47 182.44 382.31 150.91 382.31 150.91 216.54 57.33 216.54 244.5 272.39 212.97"/><polygon class="cls-2" points="326.47 182.44 326.47 217.19 272.39 217.19 272.39 212.97 216.54 244.5 216.54 431.68 272.39 400.15 272.39 273.02 337.79 362.73 381.43 338.09 325.58 271.81 382.31 271.81 382.31 150.91 326.47 182.44 326.47 182.44"/><polygon class="cls-3" points="38.08 345.25 38.08 143.75 38.08 143.75 0 122.25 0 366.75 216.54 489 216.54 446.01 38.08 345.25"/><polygon class="cls-3" points="216.54 42.99 216.54 0 0 122.25 38.08 143.75 216.54 42.99"/><polygon class="cls-2" points="395 143.75 395 143.75 395 345.25 216.54 446.01 216.54 489 433.08 366.75 433.08 122.25 395 143.75"/><polygon class="cls-1" points="395 143.75 433.08 122.25 216.54 0 216.54 42.99 395 143.75"/><polygon class="cls-3" points="104.08 120.82 50.77 150.91 50.77 150.91 104.08 181.01 104.08 120.82"/><polygon class="cls-3" points="158.16 90.29 158.16 211.54 216.54 244.5 216.54 120.99 216.54 57.33 158.16 90.29"/><polygon class="cls-4" points="158.16 288.38 124.77 238.21 104.08 271.81 104.08 181.01 50.77 150.91 50.77 213.65 50.77 338.09 104.81 368.6 124.77 340.94 156.97 398.04 216.54 431.68 216.54 244.5 158.16 211.54 158.16 288.38"/></g></g></svg>